<svg width="156" height="35" viewBox="0 0 156 35" fill="none" xmlns="http://www.w3.org/2000/svg">
<path fill-rule="evenodd" clip-rule="evenodd" d="M13.8121 4.44102L13.8114 4.44153V14.2239H27.6239V0.411391H20.7112L13.8121 7.31049V4.44102ZM6.9 14.22H-0.00234985V0.408203H13.8102V10.1906V14.2208H6.8992L6.9 14.22ZM-0.00234985 28.0365V21.1223L6.89602 14.2239H13.8102V20.7792V28.0308V28.0365H13.8045L7.24924 34.5918H-0.00234985V28.0365Z" fill="#98EC44"/>
<path d="M41.6378 25.8065V10.1155H48.5772C49.2991 10.1155 49.9621 10.2628 50.5662 10.5575C51.185 10.8521 51.7154 11.2499 52.1574 11.7509C52.6141 12.2518 52.9604 12.8117 53.1961 13.4305C53.4466 14.0493 53.5718 14.6828 53.5718 15.3311C53.5718 16.333 53.314 17.2538 52.7983 18.0936C52.2974 18.9334 51.6123 19.5375 50.743 19.9058L54.3232 25.8065H50.964L47.7374 20.5467H44.6876V25.8065H41.6378ZM44.6876 17.8726H48.5109C49.0855 17.8726 49.557 17.6295 49.9253 17.1433C50.3084 16.6424 50.4999 16.0383 50.4999 15.3311C50.4999 14.8449 50.3968 14.4102 50.1905 14.0272C49.9842 13.6441 49.719 13.3421 49.3949 13.1211C49.0855 12.9001 48.7466 12.7896 48.3783 12.7896H44.6876V17.8726ZM61.2507 26.0275C59.9984 26.0275 58.9155 25.755 58.002 25.2098C57.1033 24.6647 56.4034 23.9428 55.9025 23.044C55.4016 22.1305 55.1511 21.1434 55.1511 20.0826C55.1511 18.9923 55.3942 17.9905 55.8804 17.077C56.3813 16.1488 57.0885 15.4121 58.002 14.867C58.9155 14.3071 60.0057 14.0272 61.2728 14.0272C62.5399 14.0272 63.6228 14.3071 64.5215 14.867C65.4203 15.4121 66.1054 16.1414 66.5768 17.0549C67.063 17.9536 67.3061 18.926 67.3061 19.9721C67.3061 20.3552 67.284 20.6867 67.2398 20.9666H58.2893C58.363 21.8653 58.6945 22.5725 59.2838 23.0882C59.8879 23.6039 60.5803 23.8617 61.3612 23.8617C61.9506 23.8617 62.5031 23.7218 63.0187 23.4418C63.5491 23.1471 63.9101 22.7641 64.1016 22.2926L66.6431 22.9998C66.2159 23.8838 65.5308 24.6131 64.5878 25.1877C63.6449 25.7476 62.5325 26.0275 61.2507 26.0275ZM58.223 19.0881H64.2784C64.19 18.2188 63.8585 17.519 63.2839 16.9886C62.7241 16.4435 62.039 16.1709 61.2286 16.1709C60.433 16.1709 59.7479 16.4435 59.1733 16.9886C58.6134 17.519 58.2967 18.2188 58.223 19.0881ZM72.1236 25.8065L67.8583 14.2261H70.9302L73.8474 23.1103L76.7867 14.2261H79.5934L75.3502 25.8065H72.1236ZM80.2815 22.381C80.2815 21.6296 80.4877 20.974 80.9003 20.4141C81.3275 19.8395 81.9169 19.3975 82.6683 19.0881C83.4197 18.7787 84.2816 18.624 85.254 18.624C85.7402 18.624 86.2338 18.6682 86.7347 18.7566C87.2356 18.8303 87.6703 18.9408 88.0386 19.0881V18.4693C88.0386 17.7326 87.8176 17.1654 87.3756 16.7676C86.9483 16.3698 86.3074 16.1709 85.4529 16.1709C84.8194 16.1709 84.2153 16.2814 83.6407 16.5024C83.0661 16.7234 82.462 17.0475 81.8285 17.4748L80.8782 15.53C81.6443 15.0291 82.4252 14.6534 83.2208 14.4029C84.0311 14.1524 84.8783 14.0272 85.7623 14.0272C87.4124 14.0272 88.6942 14.4397 89.6077 15.2648C90.5359 16.0899 91 17.2685 91 18.8008V22.4915C91 22.8156 91.0516 23.044 91.1547 23.1766C91.2579 23.2945 91.442 23.3682 91.7072 23.3976V25.8065C91.442 25.8655 91.1989 25.9023 90.9779 25.917C90.7716 25.9465 90.5948 25.9612 90.4475 25.9612C89.8582 25.9612 89.4088 25.8286 89.0994 25.5634C88.79 25.2982 88.6058 24.9741 88.5469 24.591L88.4806 23.9943C87.9649 24.6573 87.3314 25.1656 86.58 25.5192C85.8433 25.8581 85.0846 26.0275 84.3037 26.0275C83.5228 26.0275 82.8304 25.8728 82.2263 25.5634C81.6222 25.2393 81.1434 24.8047 80.7898 24.2595C80.4509 23.6997 80.2815 23.0735 80.2815 22.381ZM87.4861 22.9777C87.8544 22.6241 88.0386 22.2852 88.0386 21.9611V20.7898C87.2725 20.4804 86.499 20.3257 85.7181 20.3257C84.9372 20.3257 84.3037 20.4951 83.8175 20.834C83.3313 21.1581 83.0882 21.5928 83.0882 22.1379C83.0882 22.5799 83.265 22.9777 83.6186 23.3313C83.9722 23.6849 84.4805 23.8617 85.1435 23.8617C85.5855 23.8617 86.0128 23.7807 86.4253 23.6186C86.8526 23.4566 87.2062 23.2429 87.4861 22.9777ZM111.978 25.8065H109.016V19.3091C109.016 18.3956 108.854 17.7253 108.53 17.298C108.221 16.856 107.786 16.635 107.226 16.635C106.637 16.635 106.084 16.8634 105.569 17.3201C105.053 17.7621 104.685 18.3441 104.464 19.066V25.8065H101.502V19.3091C101.502 18.3809 101.34 17.7032 101.016 17.2759C100.707 16.8486 100.272 16.635 99.7123 16.635C99.1377 16.635 98.5852 16.856 98.0548 17.298C97.5391 17.74 97.1708 18.322 96.9498 19.0439V25.8065H93.9884V14.2261H96.6625V16.3698C97.0897 15.6184 97.6717 15.0438 98.4084 14.646C99.1598 14.2334 100.014 14.0272 100.972 14.0272C101.93 14.0272 102.674 14.2629 103.204 14.7344C103.749 15.2059 104.095 15.7878 104.243 16.4803C104.7 15.6847 105.296 15.0806 106.033 14.6681C106.77 14.2408 107.595 14.0272 108.508 14.0272C109.23 14.0272 109.812 14.1598 110.254 14.425C110.711 14.6755 111.064 15.0217 111.315 15.4637C111.565 15.891 111.735 16.3772 111.823 16.9223C111.926 17.4674 111.978 18.0199 111.978 18.5798V25.8065ZM121.717 26.0275C120.803 26.0275 120.007 25.8213 119.33 25.4087C118.652 24.9962 118.122 24.4511 117.739 23.7733V30.5138H114.777V14.2261H117.363V16.2151C117.79 15.5374 118.343 15.007 119.02 14.6239C119.713 14.2261 120.494 14.0272 121.363 14.0272C122.409 14.0272 123.337 14.2997 124.148 14.8449C124.958 15.3753 125.599 16.0972 126.07 17.0107C126.542 17.9094 126.777 18.9039 126.777 19.9942C126.777 21.1287 126.556 22.1526 126.114 23.0661C125.687 23.9649 125.09 24.6868 124.324 25.2319C123.573 25.7623 122.704 26.0275 121.717 26.0275ZM120.722 23.5081C121.326 23.5081 121.849 23.3461 122.291 23.0219C122.748 22.683 123.101 22.2484 123.352 21.718C123.617 21.1729 123.75 20.5983 123.75 19.9942C123.75 19.3459 123.61 18.764 123.33 18.2483C123.05 17.7179 122.667 17.3054 122.181 17.0107C121.709 16.7013 121.164 16.5466 120.545 16.5466C119.985 16.5466 119.425 16.7308 118.866 17.0991C118.306 17.4674 117.93 17.9315 117.739 18.4914V21.2097C118.004 21.858 118.409 22.4031 118.954 22.8451C119.499 23.2871 120.089 23.5081 120.722 23.5081ZM134.375 26.0275C133.123 26.0275 132.04 25.755 131.127 25.2098C130.228 24.6647 129.528 23.9428 129.027 23.044C128.526 22.1305 128.276 21.1434 128.276 20.0826C128.276 18.9923 128.519 17.9905 129.005 17.077C129.506 16.1488 130.213 15.4121 131.127 14.867C132.04 14.3071 133.13 14.0272 134.397 14.0272C135.664 14.0272 136.747 14.3071 137.646 14.867C138.545 15.4121 139.23 16.1414 139.701 17.0549C140.188 17.9536 140.431 18.926 140.431 19.9721C140.431 20.3552 140.409 20.6867 140.364 20.9666H131.414C131.487 21.8653 131.819 22.5725 132.408 23.0882C133.012 23.6039 133.705 23.8617 134.486 23.8617C135.075 23.8617 135.628 23.7218 136.143 23.4418C136.674 23.1471 137.035 22.7641 137.226 22.2926L139.768 22.9998C139.34 23.8838 138.655 24.6131 137.712 25.1877C136.769 25.7476 135.657 26.0275 134.375 26.0275ZM131.348 19.0881H137.403C137.315 18.2188 136.983 17.519 136.408 16.9886C135.849 16.4435 135.163 16.1709 134.353 16.1709C133.558 16.1709 132.872 16.4435 132.298 16.9886C131.738 17.519 131.421 18.2188 131.348 19.0881ZM141.749 20.0163C141.749 18.9113 141.97 17.9021 142.412 16.9886C142.854 16.0751 143.465 15.3532 144.246 14.8228C145.027 14.2924 145.918 14.0272 146.92 14.0272C147.774 14.0272 148.541 14.2408 149.218 14.6681C149.911 15.0806 150.449 15.611 150.832 16.2593V9.67347H153.793V22.4915C153.793 22.8156 153.845 23.044 153.948 23.1766C154.051 23.2945 154.228 23.3682 154.478 23.3976V25.8065C153.948 25.9097 153.528 25.9612 153.218 25.9612C152.688 25.9612 152.246 25.8286 151.892 25.5634C151.554 25.2982 151.362 24.952 151.318 24.5247L151.274 23.7954C150.846 24.5174 150.264 25.0699 149.528 25.4529C148.806 25.836 148.047 26.0275 147.251 26.0275C146.176 26.0275 145.226 25.7623 144.401 25.2319C143.575 24.6868 142.927 23.9649 142.456 23.0661C141.984 22.1526 141.749 21.136 141.749 20.0163ZM150.832 21.5633V18.8008C150.596 18.1525 150.191 17.6148 149.616 17.1875C149.042 16.7602 148.452 16.5466 147.848 16.5466C147.244 16.5466 146.714 16.716 146.257 17.0549C145.8 17.379 145.447 17.8137 145.196 18.3588C144.946 18.8892 144.82 19.4638 144.82 20.0826C144.82 20.7161 144.96 21.2981 145.24 21.8285C145.52 22.3442 145.896 22.7567 146.367 23.0661C146.854 23.3608 147.406 23.5081 148.025 23.5081C148.585 23.5081 149.137 23.324 149.682 22.9556C150.242 22.5873 150.625 22.1232 150.832 21.5633Z" fill="#122010"/>
</svg>
