<svg width="216" height="57" viewBox="0 0 216 57" fill="none" xmlns="http://www.w3.org/2000/svg">
<path d="M25.3184 31.7548C24.8446 33.4104 24.4516 35.0634 24.1393 36.4067C23.819 35.1415 23.504 33.4104 22.9494 31.7548L13.3282 0.35791H0L19.5602 56.4406H28.7131L48.2006 0.35791H34.8643L25.3184 31.7548Z" fill="#F1DFBC"/>
<path d="M69.2039 0.35791H55.7922V56.4407H69.2039V0.35791Z" fill="#F1DFBC"/>
<path d="M124.465 0.40897L118.123 0.379395L124.465 0.40897Z" fill="#F1DFBC"/>
<path d="M147.477 30.0454C147.477 31.1491 147.555 32.8855 147.711 35.0903C147 33.3107 146.129 31.5988 145.111 29.9754L125.394 0.395537H118.126L124.466 0.422483L118.123 0.395537L112.233 0.365961V33.4939C112.233 42.1622 111.837 47.6108 102.685 47.6108C93.8574 47.6108 93.3001 42.006 93.3001 34.0403V0.35791H80.0474V33.9597C80.0474 48.0793 85.7302 56.8418 102.763 56.8418C119.092 56.8418 125.486 48.7953 125.486 34.0458L125.063 20.0822C126.11 21.9666 128.431 25.6171 129.64 27.3696L149.359 56.4784H160.326V0.387486H147.466L147.477 30.0454Z" fill="#F1DFBC"/>
<path d="M212.675 8.75448C209.837 4.09998 204.628 0 192.794 0C180.96 0 175.759 4.09998 172.919 8.75448C171.102 11.7507 170.227 15.3095 170.227 28.4062C170.227 41.5029 171.099 45.0538 172.919 48.0581C175.759 52.7179 180.96 56.8206 192.794 56.8206C204.628 56.8206 209.837 52.7179 212.675 48.0581C214.486 45.0618 215.367 41.5109 215.367 28.4062C215.367 15.3014 214.486 11.7399 212.675 8.75448ZM200.609 44.2515C199.341 46.5424 196.977 47.6461 192.802 47.6461C188.627 47.6461 186.255 46.5424 184.995 44.2515C183.577 41.8099 183.415 38.8943 183.415 28.3981C183.415 17.902 183.577 14.9839 184.995 12.5449C186.255 10.2567 188.624 9.15556 192.802 9.15556C196.98 9.15556 199.349 10.2567 200.609 12.5449C202.028 14.9839 202.178 17.91 202.178 28.3981C202.178 38.8862 202.028 41.799 200.609 44.2407V44.2515Z" fill="#F1DFBC"/>
</svg>
