<svg width="1440" height="1162" viewBox="0 0 1440 1162" fill="none" xmlns="http://www.w3.org/2000/svg">
<rect x="-1" y="-1.50061" width="91.4984" height="91.4984" fill="white"/>
<rect x="-0.75" y="-1.25061" width="90.9984" height="90.9984" stroke="black" stroke-opacity="0.5" stroke-width="0.5"/>
<rect x="718.688" y="-1.50061" width="91.4984" height="91.4984" fill="white"/>
<rect x="718.938" y="-1.25061" width="90.9984" height="90.9984" stroke="black" stroke-opacity="0.5" stroke-width="0.5"/>
<rect x="-1" y="88.4728" width="91.4984" height="91.4984" fill="white"/>
<rect x="-0.75" y="88.7228" width="90.9984" height="90.9984" stroke="black" stroke-opacity="0.5" stroke-width="0.5"/>
<rect x="718.688" y="88.4728" width="91.4984" height="91.4984" fill="white"/>
<rect x="718.938" y="88.7228" width="90.9984" height="90.9984" stroke="black" stroke-opacity="0.5" stroke-width="0.5"/>
<rect x="-1" y="178.446" width="91.4984" height="91.4984" fill="white"/>
<rect x="-0.75" y="178.696" width="90.9984" height="90.9984" stroke="black" stroke-opacity="0.5" stroke-width="0.5"/>
<rect x="718.688" y="178.446" width="91.4984" height="91.4984" fill="white"/>
<rect x="718.938" y="178.696" width="90.9984" height="90.9984" stroke="black" stroke-opacity="0.5" stroke-width="0.5"/>
<rect x="-1" y="268.42" width="91.4984" height="91.4984" fill="white"/>
<rect x="-0.75" y="268.67" width="90.9984" height="90.9984" stroke="black" stroke-opacity="0.5" stroke-width="0.5"/>
<rect x="718.688" y="268.42" width="91.4984" height="91.4984" fill="white"/>
<rect x="718.938" y="268.67" width="90.9984" height="90.9984" stroke="black" stroke-opacity="0.5" stroke-width="0.5"/>
<rect x="-1" y="358.393" width="91.4984" height="91.4984" fill="white"/>
<rect x="-0.75" y="358.643" width="90.9984" height="90.9984" stroke="black" stroke-opacity="0.5" stroke-width="0.5"/>
<rect x="718.688" y="358.393" width="91.4984" height="91.4984" fill="white"/>
<rect x="718.938" y="358.643" width="90.9984" height="90.9984" stroke="black" stroke-opacity="0.5" stroke-width="0.5"/>
<rect x="-1" y="448.366" width="91.4984" height="91.4984" fill="white"/>
<rect x="-0.75" y="448.616" width="90.9984" height="90.9984" stroke="black" stroke-opacity="0.5" stroke-width="0.5"/>
<rect x="718.688" y="448.366" width="91.4984" height="91.4984" fill="white"/>
<rect x="718.938" y="448.616" width="90.9984" height="90.9984" stroke="black" stroke-opacity="0.5" stroke-width="0.5"/>
<rect x="-1" y="538.34" width="91.4984" height="91.4984" fill="white"/>
<rect x="-0.75" y="538.59" width="90.9984" height="90.9984" stroke="black" stroke-opacity="0.5" stroke-width="0.5"/>
<rect x="718.688" y="538.34" width="91.4984" height="91.4984" fill="white"/>
<rect x="718.938" y="538.59" width="90.9984" height="90.9984" stroke="black" stroke-opacity="0.5" stroke-width="0.5"/>
<rect x="-1" y="628.313" width="91.4984" height="91.4984" fill="white"/>
<rect x="-0.75" y="628.563" width="90.9984" height="90.9984" stroke="black" stroke-opacity="0.5" stroke-width="0.5"/>
<rect x="718.688" y="628.313" width="91.4984" height="91.4984" fill="white"/>
<rect x="718.938" y="628.563" width="90.9984" height="90.9984" stroke="black" stroke-opacity="0.5" stroke-width="0.5"/>
<rect x="358.894" y="-1.50061" width="91.4984" height="91.4984" fill="white"/>
<rect x="359.144" y="-1.25061" width="90.9984" height="90.9984" stroke="black" stroke-opacity="0.5" stroke-width="0.5"/>
<rect x="1078.58" y="-1.50061" width="91.4984" height="91.4984" fill="white"/>
<rect x="1078.83" y="-1.25061" width="90.9984" height="90.9984" stroke="black" stroke-opacity="0.5" stroke-width="0.5"/>
<rect x="358.894" y="88.4728" width="91.4984" height="91.4984" fill="white"/>
<rect x="359.144" y="88.7228" width="90.9984" height="90.9984" stroke="black" stroke-opacity="0.5" stroke-width="0.5"/>
<rect x="1078.58" y="88.4728" width="91.4984" height="91.4984" fill="white"/>
<rect x="1078.83" y="88.7228" width="90.9984" height="90.9984" stroke="black" stroke-opacity="0.5" stroke-width="0.5"/>
<rect x="358.894" y="178.446" width="91.4984" height="91.4984" fill="white"/>
<rect x="359.144" y="178.696" width="90.9984" height="90.9984" stroke="black" stroke-opacity="0.5" stroke-width="0.5"/>
<rect x="1078.58" y="178.446" width="91.4984" height="91.4984" fill="white"/>
<rect x="1078.83" y="178.696" width="90.9984" height="90.9984" stroke="black" stroke-opacity="0.5" stroke-width="0.5"/>
<rect x="358.894" y="268.42" width="91.4984" height="91.4984" fill="white"/>
<rect x="359.144" y="268.67" width="90.9984" height="90.9984" stroke="black" stroke-opacity="0.5" stroke-width="0.5"/>
<rect x="1078.58" y="268.42" width="91.4984" height="91.4984" fill="white"/>
<rect x="1078.83" y="268.67" width="90.9984" height="90.9984" stroke="black" stroke-opacity="0.5" stroke-width="0.5"/>
<rect x="358.894" y="358.393" width="91.4984" height="91.4984" fill="white"/>
<rect x="359.144" y="358.643" width="90.9984" height="90.9984" stroke="black" stroke-opacity="0.5" stroke-width="0.5"/>
<rect x="1078.58" y="358.393" width="91.4984" height="91.4984" fill="white"/>
<rect x="1078.83" y="358.643" width="90.9984" height="90.9984" stroke="black" stroke-opacity="0.5" stroke-width="0.5"/>
<rect x="358.894" y="448.366" width="91.4984" height="91.4984" fill="white"/>
<rect x="359.144" y="448.616" width="90.9984" height="90.9984" stroke="black" stroke-opacity="0.5" stroke-width="0.5"/>
<rect x="1078.58" y="448.366" width="91.4984" height="91.4984" fill="white"/>
<rect x="1078.83" y="448.616" width="90.9984" height="90.9984" stroke="black" stroke-opacity="0.5" stroke-width="0.5"/>
<rect x="358.894" y="538.34" width="91.4984" height="91.4984" fill="white"/>
<rect x="359.144" y="538.59" width="90.9984" height="90.9984" stroke="black" stroke-opacity="0.5" stroke-width="0.5"/>
<rect x="1078.58" y="538.34" width="91.4984" height="91.4984" fill="white"/>
<rect x="1078.83" y="538.59" width="90.9984" height="90.9984" stroke="black" stroke-opacity="0.5" stroke-width="0.5"/>
<rect x="358.894" y="628.313" width="91.4984" height="91.4984" fill="white"/>
<rect x="359.144" y="628.563" width="90.9984" height="90.9984" stroke="black" stroke-opacity="0.5" stroke-width="0.5"/>
<rect x="1078.58" y="628.313" width="91.4984" height="91.4984" fill="white"/>
<rect x="1078.83" y="628.563" width="90.9984" height="90.9984" stroke="black" stroke-opacity="0.5" stroke-width="0.5"/>
<rect x="178.947" y="-1.50061" width="91.4984" height="91.4984" fill="white"/>
<rect x="179.197" y="-1.25061" width="90.9984" height="90.9984" stroke="black" stroke-opacity="0.5" stroke-width="0.5"/>
<rect x="898.635" y="-1.50061" width="91.4984" height="91.4984" fill="white"/>
<rect x="898.885" y="-1.25061" width="90.9984" height="90.9984" stroke="black" stroke-opacity="0.5" stroke-width="0.5"/>
<rect x="178.947" y="88.4728" width="91.4984" height="91.4984" fill="white"/>
<rect x="179.197" y="88.7228" width="90.9984" height="90.9984" stroke="black" stroke-opacity="0.5" stroke-width="0.5"/>
<rect x="898.635" y="88.4728" width="91.4984" height="91.4984" fill="white"/>
<rect x="898.885" y="88.7228" width="90.9984" height="90.9984" stroke="black" stroke-opacity="0.5" stroke-width="0.5"/>
<rect x="178.947" y="178.446" width="91.4984" height="91.4984" fill="white"/>
<rect x="179.197" y="178.696" width="90.9984" height="90.9984" stroke="black" stroke-opacity="0.5" stroke-width="0.5"/>
<rect x="898.635" y="178.446" width="91.4984" height="91.4984" fill="white"/>
<rect x="898.885" y="178.696" width="90.9984" height="90.9984" stroke="black" stroke-opacity="0.5" stroke-width="0.5"/>
<rect x="178.947" y="268.42" width="91.4984" height="91.4984" fill="white"/>
<rect x="179.197" y="268.67" width="90.9984" height="90.9984" stroke="black" stroke-opacity="0.5" stroke-width="0.5"/>
<rect x="898.635" y="268.42" width="91.4984" height="91.4984" fill="white"/>
<rect x="898.885" y="268.67" width="90.9984" height="90.9984" stroke="black" stroke-opacity="0.5" stroke-width="0.5"/>
<rect x="178.947" y="358.393" width="91.4984" height="91.4984" fill="white"/>
<rect x="179.197" y="358.643" width="90.9984" height="90.9984" stroke="black" stroke-opacity="0.5" stroke-width="0.5"/>
<rect x="898.635" y="358.393" width="91.4984" height="91.4984" fill="white"/>
<rect x="898.885" y="358.643" width="90.9984" height="90.9984" stroke="black" stroke-opacity="0.5" stroke-width="0.5"/>
<rect x="178.947" y="448.366" width="91.4984" height="91.4984" fill="white"/>
<rect x="179.197" y="448.616" width="90.9984" height="90.9984" stroke="black" stroke-opacity="0.5" stroke-width="0.5"/>
<rect x="898.635" y="448.366" width="91.4984" height="91.4984" fill="white"/>
<rect x="898.885" y="448.616" width="90.9984" height="90.9984" stroke="black" stroke-opacity="0.5" stroke-width="0.5"/>
<rect x="178.947" y="538.34" width="91.4984" height="91.4984" fill="white"/>
<rect x="179.197" y="538.59" width="90.9984" height="90.9984" stroke="black" stroke-opacity="0.5" stroke-width="0.5"/>
<rect x="898.635" y="538.34" width="91.4984" height="91.4984" fill="white"/>
<rect x="898.885" y="538.59" width="90.9984" height="90.9984" stroke="black" stroke-opacity="0.5" stroke-width="0.5"/>
<rect x="178.947" y="628.313" width="91.4984" height="91.4984" fill="white"/>
<rect x="179.197" y="628.563" width="90.9984" height="90.9984" stroke="black" stroke-opacity="0.5" stroke-width="0.5"/>
<rect x="898.635" y="628.313" width="91.4984" height="91.4984" fill="white"/>
<rect x="898.885" y="628.563" width="90.9984" height="90.9984" stroke="black" stroke-opacity="0.5" stroke-width="0.5"/>
<rect x="538.841" y="-1.50061" width="91.4984" height="91.4984" fill="white"/>
<rect x="539.091" y="-1.25061" width="90.9984" height="90.9984" stroke="black" stroke-opacity="0.5" stroke-width="0.5"/>
<rect x="1258.53" y="-1.50061" width="91.4984" height="91.4984" fill="white"/>
<rect x="1258.78" y="-1.25061" width="90.9984" height="90.9984" stroke="black" stroke-opacity="0.5" stroke-width="0.5"/>
<rect x="538.841" y="88.4728" width="91.4984" height="91.4984" fill="white"/>
<rect x="539.091" y="88.7228" width="90.9984" height="90.9984" stroke="black" stroke-opacity="0.5" stroke-width="0.5"/>
<rect x="1258.53" y="88.4728" width="91.4984" height="91.4984" fill="white"/>
<rect x="1258.78" y="88.7228" width="90.9984" height="90.9984" stroke="black" stroke-opacity="0.5" stroke-width="0.5"/>
<rect x="538.841" y="178.446" width="91.4984" height="91.4984" fill="white"/>
<rect x="539.091" y="178.696" width="90.9984" height="90.9984" stroke="black" stroke-opacity="0.5" stroke-width="0.5"/>
<rect x="1258.53" y="178.446" width="91.4984" height="91.4984" fill="white"/>
<rect x="1258.78" y="178.696" width="90.9984" height="90.9984" stroke="black" stroke-opacity="0.5" stroke-width="0.5"/>
<rect x="538.841" y="268.42" width="91.4984" height="91.4984" fill="white"/>
<rect x="539.091" y="268.67" width="90.9984" height="90.9984" stroke="black" stroke-opacity="0.5" stroke-width="0.5"/>
<rect x="1258.53" y="268.42" width="91.4984" height="91.4984" fill="white"/>
<rect x="1258.78" y="268.67" width="90.9984" height="90.9984" stroke="black" stroke-opacity="0.5" stroke-width="0.5"/>
<rect x="538.841" y="358.393" width="91.4984" height="91.4984" fill="white"/>
<rect x="539.091" y="358.643" width="90.9984" height="90.9984" stroke="black" stroke-opacity="0.5" stroke-width="0.5"/>
<rect x="1258.53" y="358.393" width="91.4984" height="91.4984" fill="white"/>
<rect x="1258.78" y="358.643" width="90.9984" height="90.9984" stroke="black" stroke-opacity="0.5" stroke-width="0.5"/>
<rect x="538.841" y="448.366" width="91.4984" height="91.4984" fill="white"/>
<rect x="539.091" y="448.616" width="90.9984" height="90.9984" stroke="black" stroke-opacity="0.5" stroke-width="0.5"/>
<rect x="1258.53" y="448.366" width="91.4984" height="91.4984" fill="white"/>
<rect x="1258.78" y="448.616" width="90.9984" height="90.9984" stroke="black" stroke-opacity="0.5" stroke-width="0.5"/>
<rect x="538.841" y="538.34" width="91.4984" height="91.4984" fill="white"/>
<rect x="539.091" y="538.59" width="90.9984" height="90.9984" stroke="black" stroke-opacity="0.5" stroke-width="0.5"/>
<rect x="1258.53" y="538.34" width="91.4984" height="91.4984" fill="white"/>
<rect x="1258.78" y="538.59" width="90.9984" height="90.9984" stroke="black" stroke-opacity="0.5" stroke-width="0.5"/>
<rect x="538.841" y="628.313" width="91.4984" height="91.4984" fill="white"/>
<rect x="539.091" y="628.563" width="90.9984" height="90.9984" stroke="black" stroke-opacity="0.5" stroke-width="0.5"/>
<rect x="1258.53" y="628.313" width="91.4984" height="91.4984" fill="white"/>
<rect x="1258.78" y="628.563" width="90.9984" height="90.9984" stroke="black" stroke-opacity="0.5" stroke-width="0.5"/>
<rect x="88.9734" y="-1.50061" width="91.4984" height="91.4984" fill="white"/>
<rect x="89.2234" y="-1.25061" width="90.9984" height="90.9984" stroke="black" stroke-opacity="0.5" stroke-width="0.5"/>
<rect x="808.661" y="-1.50061" width="91.4984" height="91.4984" fill="white"/>
<rect x="808.911" y="-1.25061" width="90.9984" height="90.9984" stroke="black" stroke-opacity="0.5" stroke-width="0.5"/>
<rect x="88.9734" y="88.4728" width="91.4984" height="91.4984" fill="white"/>
<rect x="89.2234" y="88.7228" width="90.9984" height="90.9984" stroke="black" stroke-opacity="0.5" stroke-width="0.5"/>
<rect x="808.661" y="88.4728" width="91.4984" height="91.4984" fill="white"/>
<rect x="808.911" y="88.7228" width="90.9984" height="90.9984" stroke="black" stroke-opacity="0.5" stroke-width="0.5"/>
<rect x="88.9734" y="178.446" width="91.4984" height="91.4984" fill="white"/>
<rect x="89.2234" y="178.696" width="90.9984" height="90.9984" stroke="black" stroke-opacity="0.5" stroke-width="0.5"/>
<rect x="808.661" y="178.446" width="91.4984" height="91.4984" fill="white"/>
<rect x="808.911" y="178.696" width="90.9984" height="90.9984" stroke="black" stroke-opacity="0.5" stroke-width="0.5"/>
<rect x="88.9734" y="268.42" width="91.4984" height="91.4984" fill="white"/>
<rect x="89.2234" y="268.67" width="90.9984" height="90.9984" stroke="black" stroke-opacity="0.5" stroke-width="0.5"/>
<rect x="808.661" y="268.42" width="91.4984" height="91.4984" fill="white"/>
<rect x="808.911" y="268.67" width="90.9984" height="90.9984" stroke="black" stroke-opacity="0.5" stroke-width="0.5"/>
<rect x="88.9734" y="358.393" width="91.4984" height="91.4984" fill="white"/>
<rect x="89.2234" y="358.643" width="90.9984" height="90.9984" stroke="black" stroke-opacity="0.5" stroke-width="0.5"/>
<rect x="808.661" y="358.393" width="91.4984" height="91.4984" fill="white"/>
<rect x="808.911" y="358.643" width="90.9984" height="90.9984" stroke="black" stroke-opacity="0.5" stroke-width="0.5"/>
<rect x="88.9734" y="448.366" width="91.4984" height="91.4984" fill="white"/>
<rect x="89.2234" y="448.616" width="90.9984" height="90.9984" stroke="black" stroke-opacity="0.5" stroke-width="0.5"/>
<rect x="808.661" y="448.366" width="91.4984" height="91.4984" fill="white"/>
<rect x="808.911" y="448.616" width="90.9984" height="90.9984" stroke="black" stroke-opacity="0.5" stroke-width="0.5"/>
<rect x="88.9734" y="538.34" width="91.4984" height="91.4984" fill="white"/>
<rect x="89.2234" y="538.59" width="90.9984" height="90.9984" stroke="black" stroke-opacity="0.5" stroke-width="0.5"/>
<rect x="808.661" y="538.34" width="91.4984" height="91.4984" fill="white"/>
<rect x="808.911" y="538.59" width="90.9984" height="90.9984" stroke="black" stroke-opacity="0.5" stroke-width="0.5"/>
<rect x="88.9734" y="628.313" width="91.4984" height="91.4984" fill="white"/>
<rect x="89.2234" y="628.563" width="90.9984" height="90.9984" stroke="black" stroke-opacity="0.5" stroke-width="0.5"/>
<rect x="808.661" y="628.313" width="91.4984" height="91.4984" fill="white"/>
<rect x="808.911" y="628.563" width="90.9984" height="90.9984" stroke="black" stroke-opacity="0.5" stroke-width="0.5"/>
<rect x="448.867" y="-1.50061" width="91.4984" height="91.4984" fill="white"/>
<rect x="449.117" y="-1.25061" width="90.9984" height="90.9984" stroke="black" stroke-opacity="0.5" stroke-width="0.5"/>
<rect x="1168.56" y="-1.50061" width="91.4984" height="91.4984" fill="white"/>
<rect x="1168.81" y="-1.25061" width="90.9984" height="90.9984" stroke="black" stroke-opacity="0.5" stroke-width="0.5"/>
<rect x="448.867" y="88.4728" width="91.4984" height="91.4984" fill="white"/>
<rect x="449.117" y="88.7228" width="90.9984" height="90.9984" stroke="black" stroke-opacity="0.5" stroke-width="0.5"/>
<rect x="1168.56" y="88.4728" width="91.4984" height="91.4984" fill="white"/>
<rect x="1168.81" y="88.7228" width="90.9984" height="90.9984" stroke="black" stroke-opacity="0.5" stroke-width="0.5"/>
<rect x="448.867" y="178.446" width="91.4984" height="91.4984" fill="white"/>
<rect x="449.117" y="178.696" width="90.9984" height="90.9984" stroke="black" stroke-opacity="0.5" stroke-width="0.5"/>
<rect x="1168.56" y="178.446" width="91.4984" height="91.4984" fill="white"/>
<rect x="1168.81" y="178.696" width="90.9984" height="90.9984" stroke="black" stroke-opacity="0.5" stroke-width="0.5"/>
<rect x="448.867" y="268.42" width="91.4984" height="91.4984" fill="white"/>
<rect x="449.117" y="268.67" width="90.9984" height="90.9984" stroke="black" stroke-opacity="0.5" stroke-width="0.5"/>
<rect x="1168.56" y="268.42" width="91.4984" height="91.4984" fill="white"/>
<rect x="1168.81" y="268.67" width="90.9984" height="90.9984" stroke="black" stroke-opacity="0.5" stroke-width="0.5"/>
<rect x="448.867" y="358.393" width="91.4984" height="91.4984" fill="white"/>
<rect x="449.117" y="358.643" width="90.9984" height="90.9984" stroke="black" stroke-opacity="0.5" stroke-width="0.5"/>
<rect x="1168.56" y="358.393" width="91.4984" height="91.4984" fill="white"/>
<rect x="1168.81" y="358.643" width="90.9984" height="90.9984" stroke="black" stroke-opacity="0.5" stroke-width="0.5"/>
<rect x="448.867" y="448.366" width="91.4984" height="91.4984" fill="white"/>
<rect x="449.117" y="448.616" width="90.9984" height="90.9984" stroke="black" stroke-opacity="0.5" stroke-width="0.5"/>
<rect x="1168.56" y="448.366" width="91.4984" height="91.4984" fill="white"/>
<rect x="1168.81" y="448.616" width="90.9984" height="90.9984" stroke="black" stroke-opacity="0.5" stroke-width="0.5"/>
<rect x="448.867" y="538.34" width="91.4984" height="91.4984" fill="white"/>
<rect x="449.117" y="538.59" width="90.9984" height="90.9984" stroke="black" stroke-opacity="0.5" stroke-width="0.5"/>
<rect x="1168.56" y="538.34" width="91.4984" height="91.4984" fill="white"/>
<rect x="1168.81" y="538.59" width="90.9984" height="90.9984" stroke="black" stroke-opacity="0.5" stroke-width="0.5"/>
<rect x="448.867" y="628.313" width="91.4984" height="91.4984" fill="white"/>
<rect x="449.117" y="628.563" width="90.9984" height="90.9984" stroke="black" stroke-opacity="0.5" stroke-width="0.5"/>
<rect x="1168.56" y="628.313" width="91.4984" height="91.4984" fill="white"/>
<rect x="1168.81" y="628.563" width="90.9984" height="90.9984" stroke="black" stroke-opacity="0.5" stroke-width="0.5"/>
<rect x="268.92" y="-1.50061" width="91.4984" height="91.4984" fill="white"/>
<rect x="269.17" y="-1.25061" width="90.9984" height="90.9984" stroke="black" stroke-opacity="0.5" stroke-width="0.5"/>
<rect x="988.608" y="-1.50061" width="91.4984" height="91.4984" fill="white"/>
<rect x="988.858" y="-1.25061" width="90.9984" height="90.9984" stroke="black" stroke-opacity="0.5" stroke-width="0.5"/>
<rect x="268.92" y="88.4728" width="91.4984" height="91.4984" fill="white"/>
<rect x="269.17" y="88.7228" width="90.9984" height="90.9984" stroke="black" stroke-opacity="0.5" stroke-width="0.5"/>
<rect x="988.608" y="88.4728" width="91.4984" height="91.4984" fill="white"/>
<rect x="988.858" y="88.7228" width="90.9984" height="90.9984" stroke="black" stroke-opacity="0.5" stroke-width="0.5"/>
<rect x="268.92" y="178.446" width="91.4984" height="91.4984" fill="white"/>
<rect x="269.17" y="178.696" width="90.9984" height="90.9984" stroke="black" stroke-opacity="0.5" stroke-width="0.5"/>
<rect x="988.608" y="178.446" width="91.4984" height="91.4984" fill="white"/>
<rect x="988.858" y="178.696" width="90.9984" height="90.9984" stroke="black" stroke-opacity="0.5" stroke-width="0.5"/>
<rect x="268.92" y="268.42" width="91.4984" height="91.4984" fill="white"/>
<rect x="269.17" y="268.67" width="90.9984" height="90.9984" stroke="black" stroke-opacity="0.5" stroke-width="0.5"/>
<rect x="988.608" y="268.42" width="91.4984" height="91.4984" fill="white"/>
<rect x="988.858" y="268.67" width="90.9984" height="90.9984" stroke="black" stroke-opacity="0.5" stroke-width="0.5"/>
<rect x="268.92" y="358.393" width="91.4984" height="91.4984" fill="white"/>
<rect x="269.17" y="358.643" width="90.9984" height="90.9984" stroke="black" stroke-opacity="0.5" stroke-width="0.5"/>
<rect x="988.608" y="358.393" width="91.4984" height="91.4984" fill="white"/>
<rect x="988.858" y="358.643" width="90.9984" height="90.9984" stroke="black" stroke-opacity="0.5" stroke-width="0.5"/>
<rect x="268.92" y="448.366" width="91.4984" height="91.4984" fill="white"/>
<rect x="269.17" y="448.616" width="90.9984" height="90.9984" stroke="black" stroke-opacity="0.5" stroke-width="0.5"/>
<rect x="988.608" y="448.366" width="91.4984" height="91.4984" fill="white"/>
<rect x="988.858" y="448.616" width="90.9984" height="90.9984" stroke="black" stroke-opacity="0.5" stroke-width="0.5"/>
<rect x="268.92" y="538.34" width="91.4984" height="91.4984" fill="white"/>
<rect x="269.17" y="538.59" width="90.9984" height="90.9984" stroke="black" stroke-opacity="0.5" stroke-width="0.5"/>
<rect x="988.608" y="538.34" width="91.4984" height="91.4984" fill="white"/>
<rect x="988.858" y="538.59" width="90.9984" height="90.9984" stroke="black" stroke-opacity="0.5" stroke-width="0.5"/>
<rect x="268.92" y="628.313" width="91.4984" height="91.4984" fill="white"/>
<rect x="269.17" y="628.563" width="90.9984" height="90.9984" stroke="black" stroke-opacity="0.5" stroke-width="0.5"/>
<rect x="988.608" y="628.313" width="91.4984" height="91.4984" fill="white"/>
<rect x="988.858" y="628.563" width="90.9984" height="90.9984" stroke="black" stroke-opacity="0.5" stroke-width="0.5"/>
<rect x="628.814" y="-1.50061" width="91.4984" height="91.4984" fill="white"/>
<rect x="629.064" y="-1.25061" width="90.9984" height="90.9984" stroke="black" stroke-opacity="0.5" stroke-width="0.5"/>
<rect x="1348.5" y="-1.50061" width="91.4984" height="91.4984" fill="white"/>
<rect x="1348.75" y="-1.25061" width="90.9984" height="90.9984" stroke="black" stroke-opacity="0.5" stroke-width="0.5"/>
<rect x="628.814" y="88.4728" width="91.4984" height="91.4984" fill="white"/>
<rect x="629.064" y="88.7228" width="90.9984" height="90.9984" stroke="black" stroke-opacity="0.5" stroke-width="0.5"/>
<rect x="1348.5" y="88.4728" width="91.4984" height="91.4984" fill="white"/>
<rect x="1348.75" y="88.7228" width="90.9984" height="90.9984" stroke="black" stroke-opacity="0.5" stroke-width="0.5"/>
<rect x="628.814" y="178.446" width="91.4984" height="91.4984" fill="white"/>
<rect x="629.064" y="178.696" width="90.9984" height="90.9984" stroke="black" stroke-opacity="0.5" stroke-width="0.5"/>
<rect x="1348.5" y="178.446" width="91.4984" height="91.4984" fill="white"/>
<rect x="1348.75" y="178.696" width="90.9984" height="90.9984" stroke="black" stroke-opacity="0.5" stroke-width="0.5"/>
<rect x="628.814" y="268.42" width="91.4984" height="91.4984" fill="white"/>
<rect x="629.064" y="268.67" width="90.9984" height="90.9984" stroke="black" stroke-opacity="0.5" stroke-width="0.5"/>
<rect x="1348.5" y="268.42" width="91.4984" height="91.4984" fill="white"/>
<rect x="1348.75" y="268.67" width="90.9984" height="90.9984" stroke="black" stroke-opacity="0.5" stroke-width="0.5"/>
<rect x="628.814" y="358.393" width="91.4984" height="91.4984" fill="white"/>
<rect x="629.064" y="358.643" width="90.9984" height="90.9984" stroke="black" stroke-opacity="0.5" stroke-width="0.5"/>
<rect x="1348.5" y="358.393" width="91.4984" height="91.4984" fill="white"/>
<rect x="1348.75" y="358.643" width="90.9984" height="90.9984" stroke="black" stroke-opacity="0.5" stroke-width="0.5"/>
<rect x="628.814" y="448.366" width="91.4984" height="91.4984" fill="white"/>
<rect x="629.064" y="448.616" width="90.9984" height="90.9984" stroke="black" stroke-opacity="0.5" stroke-width="0.5"/>
<rect x="1348.5" y="448.366" width="91.4984" height="91.4984" fill="white"/>
<rect x="1348.75" y="448.616" width="90.9984" height="90.9984" stroke="black" stroke-opacity="0.5" stroke-width="0.5"/>
<rect x="628.814" y="538.34" width="91.4984" height="91.4984" fill="white"/>
<rect x="629.064" y="538.59" width="90.9984" height="90.9984" stroke="black" stroke-opacity="0.5" stroke-width="0.5"/>
<rect x="1348.5" y="538.34" width="91.4984" height="91.4984" fill="white"/>
<rect x="1348.75" y="538.59" width="90.9984" height="90.9984" stroke="black" stroke-opacity="0.5" stroke-width="0.5"/>
<rect x="628.814" y="628.313" width="91.4984" height="91.4984" fill="white"/>
<rect x="629.064" y="628.563" width="90.9984" height="90.9984" stroke="black" stroke-opacity="0.5" stroke-width="0.5"/>
<rect x="1348.5" y="628.313" width="91.4984" height="91.4984" fill="white"/>
<rect x="1348.75" y="628.563" width="90.9984" height="90.9984" stroke="black" stroke-opacity="0.5" stroke-width="0.5"/>
<rect x="1440" y="726" width="1440" height="726" transform="rotate(-180 1440 726)" fill="url(#paint0_linear_7_3764)"/>
<g filter="url(#filter0_f_7_3764)">
<circle cx="720" cy="-542" r="540" fill="#98EC44"/>
</g>
<defs>
<filter id="filter0_f_7_3764" x="-983.972" y="-2245.97" width="3407.94" height="3407.94" filterUnits="userSpaceOnUse" color-interpolation-filters="sRGB">
<feFlood flood-opacity="0" result="BackgroundImageFix"/>
<feBlend mode="normal" in="SourceGraphic" in2="BackgroundImageFix" result="shape"/>
<feGaussianBlur stdDeviation="581.986" result="effect1_foregroundBlur_7_3764"/>
</filter>
<linearGradient id="paint0_linear_7_3764" x1="2160" y1="726" x2="2160" y2="1829.65" gradientUnits="userSpaceOnUse">
<stop stop-color="white"/>
<stop offset="1" stop-color="white" stop-opacity="0"/>
</linearGradient>
</defs>
</svg>
