<svg width="462" height="462" viewBox="0 0 462 462" fill="none" xmlns="http://www.w3.org/2000/svg">
<path d="M229.147 382.63L196.279 349.762C194.878 348.36 192.606 348.36 191.205 349.762L176.269 364.698C174.867 366.099 174.867 368.371 176.269 369.772L209.137 402.641C210.538 404.042 212.81 404.042 214.211 402.641L229.147 387.704C230.549 386.303 230.549 384.031 229.147 382.63Z" fill="#263238"/>
<path d="M282.474 296.477L217.078 361.874L206.05 350.826C215.598 341.278 210.105 318.999 210.105 318.999L228.248 300.856C257.601 296.802 319.47 252.873 319.47 252.873L321.497 254.9L282.636 293.578C282.432 293.756 282.266 293.973 282.147 294.216C282.028 294.459 281.959 294.724 281.944 294.994C281.929 295.264 281.968 295.534 282.059 295.789C282.15 296.044 282.291 296.278 282.474 296.477Z" fill="#83CA3D"/>
<path d="M278.077 350.745L259.934 368.989C259.934 368.989 237.635 363.435 228.107 373.043L217.079 362.016L282.476 296.619C282.679 296.798 282.916 296.935 283.173 297.021C283.43 297.107 283.702 297.141 283.972 297.12C284.242 297.099 284.506 297.025 284.747 296.9C284.988 296.776 285.201 296.604 285.374 296.396L324.134 257.637L326.161 259.664C326.161 259.664 282.192 321.411 278.077 350.745Z" fill="#83CA3D"/>
<path opacity="0.2" d="M278.077 350.745L259.934 368.989C259.934 368.989 237.635 363.435 228.107 373.043L217.079 362.016L282.476 296.619C282.679 296.798 282.916 296.935 283.173 297.021C283.43 297.107 283.702 297.141 283.972 297.12C284.242 297.099 284.506 297.025 284.747 296.9C284.988 296.776 285.201 296.604 285.374 296.396L324.134 257.637L326.161 259.664C326.161 259.664 282.192 321.411 278.077 350.745Z" fill="white"/>
<path d="M333.294 388.632L332.118 387.457C341.581 378.215 349.115 367.188 354.284 355.014C359.454 342.84 362.156 329.761 362.234 316.535C362.313 303.309 359.765 290.199 354.74 277.964C349.714 265.73 342.311 254.614 332.959 245.262C323.606 235.91 312.491 228.506 300.257 223.481C288.022 218.455 274.912 215.908 261.686 215.986C248.46 216.064 235.381 218.766 223.207 223.936C211.033 229.106 200.006 236.64 190.765 246.102L189.589 244.926C198.985 235.315 210.196 227.663 222.57 222.414C234.945 217.165 248.238 214.423 261.679 214.347C275.121 214.271 288.444 216.863 300.877 221.972C313.31 227.08 324.606 234.605 334.111 244.11C343.615 253.615 351.14 264.911 356.249 277.344C361.358 289.777 363.949 303.1 363.873 316.542C363.797 329.983 361.055 343.276 355.806 355.651C350.558 368.025 342.906 379.236 333.294 388.632Z" fill="#83CA3D"/>
<path d="M243.082 154.606L241.907 155.781L422.532 336.407L423.707 335.231L243.082 154.606Z" fill="#83CA3D"/>
<path d="M340.265 245.498L332.811 238.044L325.357 245.498L332.811 252.952L340.265 245.498Z" fill="#83CA3D"/>
<path d="M332.81 254.312L324.012 245.514L332.81 236.716L341.628 245.514L332.81 254.312ZM326.729 245.514L332.81 251.596L338.892 245.514L332.81 239.433L326.729 245.514Z" fill="#83CA3D"/>
<path d="M197.699 245.505L190.245 238.051L182.791 245.505L190.245 252.959L197.699 245.505Z" fill="white"/>
<path d="M190.258 254.312L181.46 245.514L190.258 236.716L199.056 245.514L190.258 254.312ZM184.176 245.514L190.258 251.596L196.339 245.514L190.258 239.433L184.176 245.514Z" fill="#83CA3D"/>
<path d="M340.59 388.344L333.136 380.89L325.682 388.344L333.136 395.798L340.59 388.344Z" fill="white"/>
<path d="M333.134 397.146L324.336 388.349L333.134 379.551L341.932 388.349L333.134 397.146ZM327.053 388.349L333.134 394.43L339.216 388.349L333.134 382.267L327.053 388.349Z" fill="#83CA3D"/>
<path d="M427.174 339.859C426.437 340.595 425.498 341.096 424.475 341.299C423.453 341.501 422.394 341.396 421.431 340.997C420.469 340.598 419.646 339.923 419.067 339.056C418.489 338.189 418.18 337.171 418.18 336.129C418.18 335.087 418.489 334.068 419.067 333.201C419.646 332.335 420.469 331.659 421.431 331.26C422.394 330.861 423.453 330.756 424.475 330.959C425.498 331.161 426.437 331.662 427.174 332.399C428.159 333.39 428.713 334.731 428.713 336.129C428.713 337.526 428.159 338.867 427.174 339.859Z" fill="white"/>
<path d="M423.444 342.352C422.005 342.353 420.609 341.854 419.496 340.942C418.382 340.029 417.62 338.758 417.338 337.346C417.056 335.934 417.273 334.468 417.951 333.198C418.629 331.927 419.727 330.932 421.057 330.38C422.387 329.829 423.867 329.755 425.245 330.173C426.623 330.59 427.814 331.472 428.614 332.669C429.415 333.866 429.775 335.303 429.635 336.736C429.494 338.169 428.861 339.509 427.843 340.528C427.267 341.108 426.582 341.567 425.827 341.88C425.072 342.194 424.262 342.354 423.444 342.352ZM423.444 331.811C422.446 331.815 421.479 332.164 420.709 332.801C419.939 333.437 419.414 334.32 419.222 335.301C419.031 336.281 419.185 337.297 419.659 338.176C420.132 339.056 420.896 339.744 421.82 340.123C422.744 340.502 423.771 340.55 424.726 340.257C425.681 339.964 426.505 339.349 427.057 338.517C427.61 337.685 427.857 336.688 427.756 335.694C427.655 334.7 427.214 333.772 426.505 333.068C425.69 332.263 424.59 331.811 423.444 331.811Z" fill="#83CA3D"/>
<path d="M246.149 158.914C245.413 159.653 244.473 160.157 243.451 160.362C242.428 160.567 241.367 160.464 240.403 160.065C239.438 159.667 238.614 158.991 238.034 158.124C237.454 157.257 237.144 156.237 237.144 155.194C237.144 154.151 237.454 153.131 238.034 152.264C238.614 151.396 239.438 150.721 240.403 150.323C241.367 149.924 242.428 149.821 243.451 150.026C244.473 150.231 245.413 150.735 246.149 151.474C247.133 152.462 247.686 153.8 247.686 155.194C247.686 156.588 247.133 157.926 246.149 158.914Z" fill="white"/>
<path d="M242.5 161.407C241.269 161.407 240.066 161.042 239.043 160.358C238.019 159.674 237.222 158.703 236.751 157.565C236.28 156.428 236.156 155.177 236.396 153.97C236.637 152.762 237.229 151.653 238.1 150.783C238.97 149.913 240.079 149.32 241.286 149.08C242.493 148.84 243.745 148.963 244.882 149.434C246.019 149.905 246.991 150.703 247.675 151.726C248.359 152.75 248.724 153.953 248.724 155.184C248.731 156.002 248.573 156.813 248.26 157.569C247.946 158.325 247.484 159.01 246.899 159.583C246.326 160.167 245.642 160.63 244.886 160.943C244.13 161.257 243.319 161.415 242.5 161.407ZM242.5 150.866C241.934 150.866 241.373 150.979 240.851 151.198C240.329 151.417 239.856 151.739 239.46 152.143C238.769 152.971 238.414 154.027 238.462 155.103C238.511 156.18 238.96 157.199 239.722 157.962C240.484 158.724 241.504 159.173 242.581 159.222C243.657 159.271 244.713 158.915 245.541 158.224C245.945 157.824 246.266 157.347 246.485 156.821C246.704 156.296 246.817 155.733 246.818 155.163C246.807 154.018 246.346 152.923 245.535 152.115C244.723 151.307 243.625 150.851 242.48 150.846L242.5 150.866Z" fill="#83CA3D"/>
<path d="M158.811 56H104.969V276.948H158.811V56Z" fill="#83CA3D"/>
<path opacity="0.7" d="M158.811 56H104.969V276.948H158.811V56Z" fill="white"/>
<path opacity="0.3" d="M154.797 66.5277H108.997V87.5697H154.797V66.5277Z" fill="#263238"/>
<path opacity="0.416667" d="M154.797 91.9755H108.997V113.017H154.797V91.9755Z" fill="#263238"/>
<path opacity="0.533333" d="M154.797 117.423H108.997V138.465H154.797V117.423Z" fill="#263238"/>
<path opacity="0.65" d="M154.797 142.884H108.997V163.926H154.797V142.884Z" fill="#263238"/>
<path opacity="0.766667" d="M154.797 168.332H108.997V189.374H154.797V168.332Z" fill="#263238"/>
<path opacity="0.883333" d="M154.797 193.78H108.997V214.822H154.797V193.78Z" fill="#263238"/>
<path d="M154.797 219.241H108.997V240.283H154.797V219.241Z" fill="#263238"/>
<path d="M120.847 69.143L67.8073 78.3999L105.795 296.058L158.834 286.801L120.847 69.143Z" fill="#83CA3D"/>
<path opacity="0.8" d="M120.847 69.143L67.8073 78.3999L105.795 296.058L158.834 286.801L120.847 69.143Z" fill="white"/>
<path d="M118.7 80.1932L73.5818 88.0676L77.1995 108.796L122.318 100.922L118.7 80.1932Z" fill="#83CA3D"/>
<path d="M123.083 105.271L77.9642 113.146L81.582 133.874L126.7 126L123.083 105.271Z" fill="#83CA3D"/>
<path d="M127.463 130.35L82.3444 138.224L85.9621 158.953L131.081 151.078L127.463 130.35Z" fill="#83CA3D"/>
<path d="M131.829 155.417L86.7109 163.291L90.3287 184.02L135.447 176.146L131.829 155.417Z" fill="#83CA3D"/>
<path d="M136.212 180.495L91.0935 188.37L94.7112 209.098L139.83 201.224L136.212 180.495Z" fill="#83CA3D"/>
<path d="M140.97 207.549L95.6278 215.335L99.2049 236.167L144.547 228.381L140.97 207.549Z" fill="#83CA3D"/>
<path d="M144.959 230.627L99.8403 238.502L103.458 259.23L148.577 251.356L144.959 230.627Z" fill="#83CA3D"/>
<path opacity="0.05" d="M118.7 80.1932L73.5818 88.0676L77.1995 108.796L122.318 100.922L118.7 80.1932Z" fill="black"/>
<path opacity="0.1" d="M123.083 105.271L77.9642 113.146L81.582 133.874L126.7 126L123.083 105.271Z" fill="black"/>
<path opacity="0.2" d="M127.463 130.35L82.3444 138.224L85.9621 158.953L131.081 151.078L127.463 130.35Z" fill="black"/>
<path opacity="0.3" d="M131.829 155.417L86.7109 163.291L90.3287 184.02L135.447 176.146L131.829 155.417Z" fill="black"/>
<path opacity="0.4" d="M136.212 180.495L91.0935 188.37L94.7112 209.098L139.83 201.224L136.212 180.495Z" fill="black"/>
<path opacity="0.5" d="M140.97 207.549L95.6278 215.335L99.2049 236.167L144.547 228.381L140.97 207.549Z" fill="black"/>
<path opacity="0.6" d="M144.959 230.627L99.8403 238.502L103.458 259.23L148.577 251.356L144.959 230.627Z" fill="black"/>
<path d="M83.6266 88.9226L33 107.249L108.206 315.004L158.833 296.677L83.6266 88.9226Z" fill="#83CA3D"/>
<path opacity="0.9" d="M83.6266 88.9226L33 107.249L108.206 315.004L158.833 296.677L83.6266 88.9226Z" fill="white"/>
<path d="M83.4303 100.175L40.3646 115.764L47.5269 135.55L90.5925 119.96L83.4303 100.175Z" fill="#83CA3D"/>
<path d="M92.1002 124.11L49.0345 139.699L56.1968 159.485L99.2625 143.895L92.1002 124.11Z" fill="#83CA3D"/>
<path d="M100.744 148.049L57.6783 163.639L64.8406 183.424L107.906 167.835L100.744 148.049Z" fill="#83CA3D"/>
<path d="M109.414 171.984L66.3484 187.574L73.5107 207.359L116.576 191.77L109.414 171.984Z" fill="#83CA3D"/>
<path d="M118.084 195.906L75.0184 211.495L82.1807 231.281L125.246 215.691L118.084 195.906Z" fill="#83CA3D"/>
<path d="M126.74 219.841L83.6748 235.43L90.8371 255.216L133.903 239.626L126.74 219.841Z" fill="#83CA3D"/>
<path d="M135.411 243.776L92.345 259.365L99.5072 279.151L142.573 263.561L135.411 243.776Z" fill="#83CA3D"/>
<path opacity="0.6" d="M83.4303 100.175L40.3646 115.764L47.5269 135.55L90.5925 119.96L83.4303 100.175Z" fill="white"/>
<path opacity="0.5" d="M92.1002 124.11L49.0345 139.699L56.1968 159.485L99.2625 143.895L92.1002 124.11Z" fill="white"/>
<path opacity="0.4" d="M100.744 148.049L57.6783 163.639L64.8406 183.424L107.906 167.835L100.744 148.049Z" fill="white"/>
<path opacity="0.3" d="M109.414 171.984L66.3484 187.574L73.5107 207.359L116.576 191.77L109.414 171.984Z" fill="white"/>
<path opacity="0.2" d="M118.084 195.906L75.0184 211.495L82.1807 231.281L125.246 215.691L118.084 195.906Z" fill="white"/>
<path opacity="0.1" d="M126.74 219.841L83.6748 235.43L90.8371 255.216L133.903 239.626L126.74 219.841Z" fill="white"/>
</svg>
